<svg width="84" height="132" viewBox="0 0 84 132" fill="none" xmlns="http://www.w3.org/2000/svg">
<path fill-rule="evenodd" clip-rule="evenodd" d="M15.7589 0H0V15.8453H15.7589V0ZM20.3476 15.8466H67.7575V84.0409L43.5036 68.1698H15.7602V20.5367H0.00137134V83.9695H38.81L67.7575 102.971L67.7875 84.0579H83.5157V0.00137134H20.3476V15.8466ZM38.1217 118.913C38.6095 118.405 39.2279 118.15 39.9776 118.15C40.7273 118.15 41.343 118.405 41.824 118.913C42.305 119.422 42.5458 120.104 42.5458 120.959C42.5458 121.813 42.305 122.495 41.824 123.004C41.343 123.512 40.7273 123.767 39.9776 123.767C39.2279 123.767 38.6088 123.512 38.1217 123.004C37.6339 122.495 37.3904 121.813 37.3904 120.959C37.3904 120.104 37.6346 119.422 38.1217 118.913ZM65.7878 118.15C65.0381 118.15 64.4224 118.405 63.9414 118.913C63.4604 119.422 63.2196 120.104 63.2196 120.959C63.2196 121.813 63.4604 122.495 63.9414 123.004C64.4224 123.512 65.0381 123.767 65.7878 123.767C66.5375 123.767 67.1532 123.512 67.6342 123.004C68.1152 122.495 68.356 121.813 68.356 120.959C68.356 120.104 68.1152 119.422 67.6342 118.913C67.1532 118.405 66.5375 118.15 65.7878 118.15ZM0 132V110.293H83.515V132H0ZM17.3249 123.117C16.6814 122.758 16.1786 122.259 15.816 121.618V121.62C15.4534 120.979 15.2724 120.263 15.2724 119.433C15.2724 118.603 15.4534 117.868 15.816 117.227C16.1786 116.587 16.6848 116.09 17.3345 115.738C17.9842 115.387 18.7278 115.21 19.5652 115.21C20.8898 115.21 22.0205 115.707 22.958 116.7L24.9071 114.89C24.2696 114.149 23.4825 113.584 22.545 113.194C21.6082 112.805 20.5646 112.609 19.4149 112.609C18.0406 112.609 16.8031 112.901 15.7038 113.486C14.6044 114.07 13.7451 114.88 13.1267 115.917C12.5083 116.954 12.1988 118.125 12.1988 119.432C12.1988 120.739 12.5083 121.911 13.1267 122.948C13.7451 123.984 14.5982 124.795 15.6854 125.379C16.7725 125.963 17.9971 126.255 19.3591 126.255C20.3081 126.255 21.2517 126.111 22.1892 125.822C23.1267 125.533 23.9512 125.118 24.6635 124.578V119.225H21.8892V123.089C21.1891 123.466 20.4013 123.654 19.5271 123.654C18.7026 123.654 17.9685 123.475 17.3249 123.117ZM32.8736 118.414C32.9858 118.414 33.2042 118.426 33.5294 118.451V115.738C32.7545 115.738 32.0701 115.863 31.4769 116.114C30.8837 116.366 30.4115 116.737 30.0618 117.227V115.889H27.2691V126.029H30.1931V121.241C30.1931 120.299 30.4306 119.592 30.9054 119.121C31.3803 118.649 32.0361 118.414 32.8736 118.414ZM42.8259 125.51C43.6627 125.065 44.3192 124.446 44.7941 123.654C45.269 122.862 45.5064 121.964 45.5064 120.958C45.5064 119.953 45.269 119.055 44.7941 118.263C44.3192 117.471 43.6627 116.853 42.8259 116.406C41.9885 115.961 41.0394 115.738 39.9768 115.738C38.9141 115.738 37.9617 115.961 37.1181 116.406C36.2745 116.853 35.6153 117.471 35.1404 118.263C34.6655 119.055 34.4281 119.953 34.4281 120.958C34.4281 121.964 34.6655 122.862 35.1404 123.654C35.6153 124.446 36.2745 125.065 37.1181 125.51C37.9617 125.957 38.9148 126.18 39.9768 126.18C41.0388 126.18 41.9885 125.957 42.8259 125.51ZM54.841 126.029H57.6153V115.889H54.6913V120.903C54.6913 121.807 54.4784 122.489 54.0539 122.948C53.6287 123.406 53.0661 123.635 52.3667 123.635C51.0047 123.635 50.3237 122.818 50.3237 121.185V115.889H47.3997V121.618C47.3997 123.127 47.7868 124.264 48.5617 125.03C49.3366 125.797 50.3863 126.18 51.7109 126.18C52.3354 126.18 52.9164 126.063 53.4539 125.831C53.9913 125.599 54.4532 125.263 54.841 124.823V126.029ZM68.8528 125.529C69.6216 125.095 70.2243 124.486 70.6618 123.701C71.0985 122.916 71.3176 122.001 71.3176 120.958C71.3176 119.915 71.0992 119.002 70.6618 118.216C70.2243 117.431 69.6216 116.821 68.8528 116.388C68.0841 115.955 67.2316 115.738 66.2942 115.738C64.907 115.738 63.8511 116.177 63.1266 117.057V115.888H60.3339V129.685H63.2579V124.954C63.9947 125.771 65.007 126.179 66.2942 126.179C67.2316 126.179 68.0841 125.962 68.8528 125.529Z" fill="white"/>
</svg>
